<?xml version="1.0" standalone="no"?>
<!DOCTYPE svg PUBLIC "-//W3C//DTD SVG 20010904//EN"
 "http://www.w3.org/TR/2001/REC-SVG-20010904/DTD/svg10.dtd">
<svg version="1.0" xmlns="http://www.w3.org/2000/svg"
 width="892.000000pt" height="564.000000pt" viewBox="0 0 892.000000 564.000000"
 preserveAspectRatio="xMidYMid meet">

<g transform="translate(0.000000,564.000000) scale(0.100000,-0.100000)"
fill="#000000" stroke="none">
<path d="M7725 5590 c-60 -4 -166 -10 -235 -13 -105 -5 -266 -21 -420 -41 -19
-2 -98 -18 -175 -34 -846 -179 -1546 -534 -2290 -1159 l-60 -51 -41 37 c-157
139 -425 163 -734 66 -341 -108 -748 -359 -1220 -756 -128 -108 -134 -113
-240 -208 -41 -37 -90 -81 -109 -97 l-34 -30 28 -42 27 -42 72 39 c553 300
1097 528 1387 581 140 27 260 14 296 -32 30 -38 25 -55 -43 -133 -47 -53 -70
-72 -75 -63 -10 15 -9 16 -78 -80 -31 -44 -83 -117 -115 -163 -33 -46 -93
-128 -133 -182 l-73 -98 85 -144 c47 -79 85 -146 85 -148 0 -3 -30 -9 -67 -12
-271 -28 -655 -193 -1028 -441 -136 -90 -203 -145 -469 -381 -206 -182 -415
-345 -571 -445 -383 -246 -762 -400 -1186 -483 -66 -13 -123 -26 -127 -29 -12
-12 329 -5 446 9 291 36 638 128 965 256 27 11 47 15 45 10 -4 -13 -290 -240
-473 -376 -254 -188 -517 -368 -720 -491 -116 -70 -358 -204 -369 -204 -5 0
-7 -2 -4 -5 15 -16 425 138 743 278 331 147 524 238 1028 490 230 115 420 207
422 205 2 -2 -62 -59 -143 -128 -305 -261 -525 -462 -752 -688 -129 -129 -255
-257 -280 -285 -45 -49 -44 -49 105 50 436 291 867 530 1285 713 514 225 782
375 1038 580 221 177 498 449 551 541 26 47 30 50 41 33 6 -11 44 -73 84 -139
l72 -120 39 1 c80 1 366 51 664 116 l144 32 25 -29 c126 -148 -316 -594 -1146
-1156 -96 -65 -179 -120 -184 -121 -12 -4 27 -88 41 -88 18 0 283 95 461 165
857 337 1369 703 1521 1087 31 78 33 90 32 203 -1 66 -3 130 -5 143 -3 21 6
27 97 62 460 175 930 433 1310 720 264 199 577 500 790 758 146 175 153 186
249 337 243 382 368 638 487 992 53 160 115 412 107 435 -9 23 -65 45 -212 83
-155 39 -403 79 -586 95 -69 6 -154 15 -190 20 -36 5 -67 9 -70 8 -3 0 -54 -4
-115 -8z m405 -119 c136 -13 329 -44 455 -73 131 -30 199 -73 148 -93 -26 -10
-265 -6 -385 6 -57 5 -152 14 -213 19 -60 6 -121 12 -135 15 -14 2 -50 7 -80
10 -30 4 -84 11 -119 16 -36 6 -115 16 -175 24 -147 19 -357 53 -363 59 -7 6
88 18 216 25 157 10 510 5 651 -8z m-1067 -193 c47 -79 274 -464 506 -857
l420 -715 -36 -45 c-110 -138 -371 -403 -528 -536 -394 -337 -867 -621 -1390
-838 -184 -76 -364 -138 -650 -227 -77 -24 -314 -84 -430 -110 l-90 -20 -17
23 c-9 12 -25 33 -36 47 -32 44 -239 393 -263 445 -13 28 -38 73 -56 102 -18
29 -33 56 -33 61 0 4 19 19 43 32 38 21 218 129 629 373 76 45 138 87 138 93
0 7 -26 55 -57 108 -41 69 -63 95 -74 92 -14 -3 -631 -367 -762 -449 -26 -16
-49 -28 -51 -26 -7 9 -93 150 -245 407 l-163 272 119 133 c190 212 431 450
619 612 682 589 1421 970 2209 1140 61 13 111 24 112 24 1 1 40 -63 86 -141z
m-3183 -1909 c0 -4 19 -38 42 -75 95 -158 297 -502 300 -513 3 -11 -322 -211
-333 -205 -3 2 -54 83 -113 181 -59 98 -128 211 -152 251 l-46 72 39 52 c21
29 61 82 91 118 29 36 71 89 95 117 l42 53 17 -23 c10 -12 18 -25 18 -28z
m-183 -686 c28 -43 63 -99 77 -125 l27 -47 -23 -12 c-13 -6 -176 -103 -363
-214 -187 -111 -375 -221 -419 -246 -43 -24 -80 -49 -83 -55 -2 -5 25 -58 60
-117 l64 -106 99 61 c227 140 769 461 783 465 24 6 115 -165 103 -192 -33 -72
-243 -317 -362 -422 -154 -136 -278 -207 -576 -333 -272 -114 -282 -119 -444
-200 -179 -89 -314 -169 -490 -287 -147 -99 -150 -103 195 218 250 233 493
453 557 504 21 17 38 33 38 36 0 4 -64 -27 -142 -68 -233 -121 -913 -460
-1198 -595 -265 -126 -569 -268 -575 -268 -2 0 -42 -18 -89 -40 -110 -51 -121
-51 -26 2 484 266 950 569 1189 773 93 78 306 293 299 300 -2 3 -56 -18 -119
-46 -288 -127 -620 -254 -789 -300 -53 -14 -174 -38 -177 -35 -2 1 23 13 55
26 94 38 270 128 382 195 284 171 549 368 1043 778 156 129 448 308 593 363
57 22 211 61 250 63 5 1 33 -34 61 -76z m734 -246 c37 -61 121 -204 188 -316
66 -113 121 -207 121 -211 0 -7 -320 -61 -379 -63 l-44 -2 -68 115 c-38 63
-69 118 -69 122 0 4 -36 66 -79 138 l-79 130 36 22 c74 46 297 177 302 177 3
0 35 -50 71 -112z"/>
</g>
</svg>
